<svg version="1.1" id="Layer_3" xmlns="http://www.w3.org/2000/svg" xmlns:xlink="http://www.w3.org/1999/xlink" width="100%"
	 viewBox="0 0 920 620" style="enable-background:new 0 0 920 620;" xml:space="preserve">
<style type="text/css">
	
		.st0{clip-path:url(#SVGID_00000032624315247183940850000002292330805061557148_);fill:url(#SVGID_00000003811369937041186860000016022453720237323697_);}
	.st1{fill:url(#SVGID_00000008142161957300905590000004647420775762414782_);}
</style>
<g>
	<g>
		<g>
			<defs>
				<path id="SVGID_1_" d="M471.8,248.5c-0.7,46.3-13.3,91.7-19.9,137.4c-1.2,11-4.1,21.9-6,32.8c-1.5,9.7-1.2,23.1-12.8,26.4
					C377.8,465.9,296.2,493.4,242,460c-47.3-28.1-40-101.6-4.1-136.7c32.5-28.6,79.2-37.5,121.1-37.8c7.1,0.4,14.4,0,21.3,1.8
					c3.3,0.9,4.9-0.5,5.8-3.4c5-16.5,5.6-41.2-15.4-44.8c-19.7-4.1-40.9,0.4-60.1,6c-10.2,3.4-20.2,7.5-30.4,11.2
					c-9.3,3.7-11.5-3.7-13.7-10.3c-5.2-13.9-10.3-27.9-15.8-41.7c-1.8-4.5,0.4-6.6,3.9-8.9c14.4-9.4,30.1-15.2,46-20.7
					C372.9,148.9,471.4,148.7,471.8,248.5z M339.7,344.2c-24.6,1.4-47.2,14.6-45.9,38.4c-0.2,5.6,1.9,11,6.6,14.5
					c16.6,12.6,38.4,4.1,57,0.7c12.8-1.9,9.6-2.7,12.4-13.9C374.1,337.6,389.2,343.9,339.7,344.2z M742.6,135.8
					c-60.4,19.6-98.7,112.1-42.8,154.7c18.4,14,40.1,20,63.3,23.1c11.3,1.5,22.9,3,32.5,9.7c4.1,2.9,5,6.9,4,12.2
					c-2.7,14.1-12.9,20.8-25,23.8c-30.9,7.5-62.3,4.2-89-12.2c-7.4-4.7-13.2-3.5-18.2,3.7c-9.9,14.2-19.6,28.6-29.2,43
					c-5.4,8.2-4.9,10.8,2.8,15.9c43.3,29.7,99.8,33.7,150.3,20.2c33.7-9,67.7-29,83.4-61.1c22.5-45.8,14.2-96.5-38.1-117
					c-15-5.9-31.1-9.5-47.3-11.3c-15.5-1.7-42.5-10.4-29.9-29.1c4.8-7.1,12.6-13.2,21.2-14.6c26.2-5.3,51.6-2.1,76.2,7.1
					c6.9,2.1,9.8,1.1,14.2-5.1c10.1-14.2,20.1-28.5,30.1-42.7c7.3-10.4,6.5-13.5-4.3-17.8c-23.2-11-48.9-16.2-74.4-16.9
					C795.4,120.4,768.4,127.4,742.6,135.8z M53.1,491.1c17.4,0.1,45.4,3.3,50.5-41c9.9-59,17.4-106.5,28.7-165.2
					c0.8-4.3,1.6-17.8,9.9-20.5c11.6-3.8,24.7-4.7,33.3-4.9c10.9-0.2,33.4-1.8,41.6-16.7c5.2-9.5,16-63,3-63.8
					c-36.6-2.2-72.1,0.1-108,10.8c-18.2,5.4-37.7,12.7-50.8,26.9c-1.7,1.8-3,5.5-3.5,7.5c-3.4,14.5-6.1,39.2-9.1,58.7
					c-4.9,28.6-10.3,56.8-14.4,85.5c-6.9,36.4-12.1,73-19.3,109.5C12.7,489.1,43,491,53.1,491.1z M538.5,448.5
					c38.6-4.7,43.5,4.5,48.7-38.9c9.7-55.6,25.5-154.5,37.2-214.6c7.4-38.2,10.1-48.5,2.2-48.5c-11.2,0-76.2,0.6-78.4,11.6
					c-10.9,49.1-16.6,98.9-26.3,148c-5.8,38.6-22.8,129.1-22.8,136c0,9.5,2.6,8.9,9.7,8.8C518.7,450.9,528.6,449.5,538.5,448.5
					C538.5,448.6,538.5,448.6,538.5,448.5z M598.1,14.5c-52.3,12.9-53.8,104.3,10,89.7C665.9,91.7,668-5.3,598.1,14.5z"/>
			</defs>
			<clipPath id="SVGID_00000044162545090111426450000001124760504037169282_">
				<use xlink:href="#SVGID_1_"  style="overflow:visible;"/>
			</clipPath>
			
				<linearGradient id="SVGID_00000114032805418873262490000001206521225401110150_" gradientUnits="userSpaceOnUse" x1="-178.4414" y1="462.4793" x2="2057.4578" y2="143.1055" gradientTransform="matrix(1 -8.748867e-02 0 1 0 -33.4581)">
				<stop  offset="0" style="stop-color:#B615FF"/>
				<stop  offset="0.4973" style="stop-color:#00EDFF"/>
			</linearGradient>
			
				<polygon style="clip-path:url(#SVGID_00000044162545090111426450000001124760504037169282_);fill:url(#SVGID_00000114032805418873262490000001206521225401110150_);" points="
				2057.6,388.6 -201,586.2 -201,-9.1 2057.6,-206.7 			"/>
		</g>
	</g>
</g>
<linearGradient id="SVGID_00000063616806453395358830000002264798117565068986_" gradientUnits="userSpaceOnUse" x1="65.0523" y1="478.2542" x2="869.5345" y2="741.945" gradientTransform="matrix(1 -8.748867e-02 0 1 0 -33.4581)">
	<stop  offset="0" style="stop-color:#B615FF"/>
	<stop  offset="1" style="stop-color:#00EDFF"/>
</linearGradient>
<path style="fill:url(#SVGID_00000063616806453395358830000002264798117565068986_);" d="M881.5,532.4L14.2,608.2v-78.4L881.5,454
	V532.4z M62,585.2v-12.4l11.2-25l-9.7,0.9l-6.2,15.7l-5.9-14.6l-10.2,0.9l11.2,23v12.4L62,585.2z M107.1,563.1
	c0-11.3-6.1-18.5-17.2-17.6c-11.1,1-17.3,9.3-17.3,20.6c0,11.2,6.2,18.4,17.3,17.5C101,582.6,107.1,574.4,107.1,563.1z M89.8,575.3
	c-4.9,0.4-7.3-3-7.3-10.1c0-7.3,2.4-11.1,7.3-11.6c4.8-0.4,7.3,3,7.3,10.3C97.1,571.1,94.7,574.9,89.8,575.3z M128.6,580.1
	c2.3-0.2,4.4-0.7,6.4-1.5c6.3-2.7,9.9-8.3,9.9-16.9v-20.3l-9.6,0.8V563c0,5.5-2.2,8.4-6.7,8.8c-4.4,0.4-6.7-2.2-6.7-7.6v-20.8
	l-9.5,0.8v20.3c0,5.7,1.5,9.8,4.5,12.4C119.9,579.5,123.8,580.6,128.6,580.1z M167.1,539.5l-15.2,1.3v36.4l9.4-0.8v-12l5-0.4
	l4.8,11.6l10.9-1l-6.2-13.3c3.7-2.2,5.6-5.9,5.6-11C181.4,541.4,176.2,538.7,167.1,539.5z M161.3,548l6.6-0.6c2.5-0.2,3.8,1,3.8,3.8
	s-1.3,4.3-3.8,4.5l-6.6,0.6V548z M213,535.5l-15.3,1.3v36.4l9.5-0.8V561l5-0.4c9.7-0.9,14.6-5.5,14.6-13.8
	C226.8,538.3,221.7,534.8,213,535.5z M216.8,547.6c0,3.2-1.2,4.6-4.3,4.9l-5.3,0.5v-8.9l5.2-0.5
	C215.6,543.3,216.8,544.4,216.8,547.6z M260.7,531.4l-27.6,2.4v36.4l28-2.4v-8l-18.4,1.6V555l16.8-1.5v-8.1l-16.8,1.5v-5.8l18.1-1.6
	v-8.1H260.7z M283.6,529.3l-15.2,1.3V567l9.4-0.8v-12l5-0.4l4.8,11.6l10.9-1l-6.2-13.3c3.7-2.2,5.6-5.9,5.6-11
	C297.9,531.2,292.7,528.6,283.6,529.3z M277.8,537.9l6.6-0.6c2.5-0.2,3.8,1,3.8,3.8s-1.3,4.3-3.8,4.5l-6.6,0.6V537.9z M330.3,550.9
	c0-8.9-7.2-9.7-14.2-11c-1.7-0.3-4.5-0.6-4.5-2.8c0-1.9,1.6-3,4.8-3.3c3.4-0.3,7,0.2,10.6,1.6l3-7.4c-3.9-2-8.4-2.8-13.5-2.4
	c-4.3,0.4-7.8,1.6-10.6,3.8c-2.8,2.2-4.2,5.2-4.2,9.2c0,7.3,5.1,9.5,11,10.4c2.5,0.5,7.7,0.1,7.7,3.5c0,1.8-1.7,2.8-5.1,3.1
	c-4,0.3-8.7-0.8-11-2.2l-3.2,7.3c3.2,2.2,8.9,3.5,14.5,3C323.9,563.1,330.3,559,330.3,550.9z M369.2,540.1
	c0-11.3-6.1-18.5-17.2-17.6s-17.3,9.3-17.3,20.6c0,11.2,6.2,18.4,17.3,17.5C363.1,559.6,369.2,551.4,369.2,540.1z M351.9,552.4
	c-4.9,0.4-7.3-3-7.3-10.1c0-7.3,2.4-11.1,7.3-11.6c4.8-0.4,7.3,3,7.3,10.3C359.2,548.2,356.8,552,351.9,552.4z M398.1,519.3v22.1
	l-13.6-20.9l-9.5,0.8v36.4l9.1-0.8v-22.2l13.8,21l9.3-0.8v-36.4L398.1,519.3z M436.8,552.4l10.5-0.9l-12.4-35.3l-10.8,0.9
	l-12.4,37.5l10.1-0.9l2.1-7.2l10.7-0.9L436.8,552.4z M425.6,538.7l3.8-12.8l3.7,12.2L425.6,538.7z M461.5,542.2v-28.4l-9.5,0.8V551
	l26.1-2.3v-8L461.5,542.2z M515.9,545.4l10.5-0.9L514,509.2l-10.8,0.9l-12.4,37.5l10.1-0.9l2.1-7.2l10.7-0.9L515.9,545.4z
	 M504.7,531.8l3.8-12.8l3.7,12.2L504.7,531.8z M531.1,544.1l9.5-0.8v-36.4l-9.5,0.8V544.1z M580.1,539.8l10.5-0.9l-12.4-35.3
	l-10.8,0.9L555,542l10.1-0.9l2.1-7.2l10.7-0.9L580.1,539.8z M568.9,526.2l3.8-12.8l3.7,12.2L568.9,526.2z M622.4,525.4
	c0-8.9-7.2-9.7-14.2-11c-1.7-0.3-4.5-0.6-4.5-2.8c0-1.9,1.6-3,4.8-3.3c3.4-0.3,7,0.2,10.6,1.6l3-7.4c-3.9-2-8.4-2.8-13.5-2.4
	c-4.3,0.4-7.8,1.6-10.6,3.8s-4.2,5.2-4.2,9.2c0,7.3,5.1,9.5,11,10.4c2.5,0.5,7.7,0.1,7.7,3.5c0,1.8-1.7,2.8-5.1,3.1
	c-4,0.3-8.7-0.8-11-2.2l-3.2,7.3c3.2,2.2,8.9,3.5,14.5,3C616,537.5,622.4,533.4,622.4,525.4z M655.5,522.5c0-8.9-7.2-9.7-14.2-11
	c-1.7-0.3-4.5-0.6-4.5-2.8c0-1.9,1.6-3,4.8-3.3c3.4-0.3,7,0.2,10.6,1.6l3-7.4c-3.9-2-8.4-2.8-13.5-2.4c-4.3,0.4-7.8,1.6-10.6,3.8
	s-4.2,5.2-4.2,9.2c0,7.3,5.1,9.5,11,10.4c2.5,0.5,7.7,0.1,7.7,3.5c0,1.8-1.7,2.8-5.1,3.1c-4,0.3-8.7-0.8-11-2.2l-3.2,7.3
	c3.2,2.2,8.9,3.5,14.5,3C649,534.6,655.5,530.5,655.5,522.5z M661.4,532.7l9.5-0.8v-36.4l-9.5,0.8V532.7z M705.7,518.1
	c0-8.9-7.2-9.7-14.2-11c-1.7-0.3-4.5-0.6-4.5-2.8c0-1.9,1.6-3,4.8-3.3c3.4-0.3,7,0.2,10.6,1.6l3-7.4c-3.9-2-8.4-2.8-13.5-2.4
	c-4.3,0.4-7.8,1.6-10.6,3.8s-4.2,5.2-4.2,9.2c0,7.3,5.1,9.5,11,10.4c2.5,0.5,7.7,0.1,7.7,3.5c0,1.8-1.7,2.8-5.1,3.1
	c-4,0.3-8.7-0.8-11-2.2l-3.2,7.3c3.2,2.2,8.9,3.5,14.5,3C699.3,530.2,705.7,526.1,705.7,518.1z M739.2,489.5l-30.3,2.7v8l10.4-0.9
	v28.4l9.5-0.8v-28.4l10.4-0.9L739.2,489.5L739.2,489.5z M762.9,523.8l10.5-0.9L761,487.6l-10.8,0.9L737.8,526l10.1-0.9l2.1-7.2
	l10.7-0.9L762.9,523.8z M751.7,510.2l3.8-12.8l3.7,12.2L751.7,510.2z M801.2,484.1v22.1l-13.6-20.9l-9.5,0.8v36.4l9.1-0.8v-22.2
	l13.8,21l9.3-0.8v-36.4L801.2,484.1z M845.4,480.2l-30.3,2.7v8l10.4-0.9v28.4l9.5-0.8v-28.4l10.4-0.9L845.4,480.2L845.4,480.2z"/>
</svg>
